<svg xmlns="http://www.w3.org/2000/svg" xmlns:svgjs="http://svgjs.com/svgjs" xmlns:xlink="http://www.w3.org/1999/xlink" width="288" height="288"><svg xmlns="http://www.w3.org/2000/svg" width="288" height="288" viewBox="0 0 36 36"><g fill="#fff" class="colorfff svgShape" transform="translate(2 -1018.974)"><circle cx="16" cy="1036.974" r="18" fill="#ffa40b" fill-rule="evenodd" class="colorffa40b svgShape"/><path style="line-height:normal;text-indent:0;text-align:start;text-decoration-line:none;text-decoration-style:solid;text-decoration-color:#000;text-transform:none;block-progression:tb;isolation:auto;mix-blend-mode:normal" fill="#ff7712" d="M19.96 35.871a18 18 0 0 0 1.099-.133 18 18 0 0 0 1.755-.394 18 18 0 0 0 1.707-.567 18 18 0 0 0 1.643-.736 18 18 0 0 0 1.56-.895A18 18 0 0 0 29.19 32.1a18 18 0 0 0 1.352-1.188 18 18 0 0 0 1.227-1.316 18 18 0 0 0 1.087-1.432 18 18 0 0 0 .942-1.535 18 18 0 0 0 .781-1.62 18 18 0 0 0 .617-1.689 18 18 0 0 0 .446-1.744 18 18 0 0 0 .082-.54l-8.526-8.526a.5.5 0 0 0-.498-.502l-9.1-.014v.004L8.5 12.02a.5.5 0 0 0-.24.06.5.5 0 0 0-.043.027.5.5 0 0 0-.04.03.5.5 0 0 0-.034.035.5.5 0 0 0-.063.076.5.5 0 0 0-.025.043.5.5 0 0 0-.047.145.5.5 0 0 0-.006.048.5.5 0 0 0-.002.036v11.39a.5.5 0 0 0 .498.498.5.5 0 0 0 .002 0v.002l11.46 11.461z" class="colorff7712 svgShape" color="#000" font-family="sans-serif" font-weight="400" transform="translate(-2 1018.973)"/><path d="m15.6 10-9.1.021a.5.5 0 0 0-.24.061.5.5 0 0 0-.043.027.5.5 0 0 0-.04.03.5.5 0 0 0-.034.035.5.5 0 0 0-.063.078.5.5 0 0 0-.025.043.5.5 0 0 0-.047.143.5.5 0 0 0-.006.048.5.5 0 0 0-.002.035v11.39a.5.5 0 0 0 .5.5h12.955a4.413 4.413 0 0 0 3.08 1.257c2.446 0 4.438-1.997 4.438-4.447 0-1.45-.707-2.728-1.782-3.541v-5.094a.5.5 0 0 0-.492-.574L15.6 10Zm-7.356 1.021h14.697L15.6 15.615l-7.356-4.594zm15.947.397v3.684a4.393 4.393 0 0 0-1.41-.305c-.081-.01-.162-.027-.246-.027-1.528 0-2.88.78-3.678 1.964v.002c-.159.237-.297.489-.41.754v.002c-.112.266-.2.544-.26.832v.002a4.45 4.45 0 0 0-.09.893v.002c0 .003.003.006.003.01 0 .214.024.424.062.63.082.558.266 1.078.535 1.55H7v-9.989l8.336 5.207a.5.5 0 0 0 .53 0l8.325-5.21zm-1.656 4.353c.215 0 .422.026.625.063.055.01.108.024.162.037.144.034.282.078.418.129.067.025.134.047.2.076.165.075.325.161.476.26a.5.5 0 0 0 .049.027 3.443 3.443 0 0 1 1.508 2.858 3.434 3.434 0 0 1-3.438 3.447 3.412 3.412 0 0 1-2.504-1.092c-.017-.018-.03-.04-.047-.058a3.451 3.451 0 0 1-.35-.456c-.013-.022-.023-.047-.036-.07a3.444 3.444 0 0 1-.25-.492c-.026-.064-.041-.133-.063-.2-.046-.138-.093-.277-.12-.421a3.502 3.502 0 0 1-.063-.613c0-.016-.004-.03-.004-.045v-.002a3.505 3.505 0 0 1 .27-1.344v-.002c.086-.206.193-.401.316-.584v-.002a3.426 3.426 0 0 1 2.851-1.516zm-.006 1.157a.5.5 0 0 0-.494.506v2.394a.5.5 0 1 0 1 0v-2.394a.5.5 0 0 0-.506-.506zm-.045 3.578a.5.5 0 0 0 .051 1 .5.5 0 1 0 0-1 .5.5 0 0 0-.05 0z" color="#000" font-family="sans-serif" font-weight="400" overflow="visible" transform="translate(0 1020.974)" style="line-height:normal;text-indent:0;text-align:start;text-decoration-line:none;text-decoration-style:solid;text-decoration-color:#000;text-transform:none;block-progression:tb;isolation:auto;mix-blend-mode:normal" class="color000 svgShape"/></g></svg></svg>